{
  "accessors": [
    {
      "bufferView": 1,
      "componentType": 5126,
      "count": 9665,
      "max": [
        0.86904078722000122,
        3.1030104160308838,
        1.9800893068313599
      ],
      "min": [
        -0.86904078722000122,
        -3.0821375846862793,
        -0.11007504910230637
      ],
      "type": "VEC3"
    },
    {
      "bufferView": 1,
      "byteOffset": 115980,
      "componentType": 5126,
      "count": 9665,
      "max": [
        0.99988746643066406,
        0.99997121095657349,
        0.99833166599273682
      ],
      "min": [
        -0.99995017051696777,
        -0.99994778633117676,
        -0.99924373626708984
      ],
      "type": "VEC3"
    },
    {
      "bufferView": 0,
      "componentType": 5125,
      "count": 9684,
      "max": [
        9664
      ],
      "min": [
        0
      ],
      "type": "SCALAR"
    },
    {
      "bufferView": 1,
      "byteOffset": 231960,
      "componentType": 5126,
      "count": 66,
      "max": [
        0.14512151479721069,
        -2.5925884246826172,
        0.89056301116943359
      ],
      "min": [
        -0.14512148499488831,
        -3.0913345813751221,
        0.60495561361312866
      ],
      "type": "VEC3"
    },
    {
      "bufferView": 1,
      "byteOffset": 232752,
      "componentType": 5126,
      "count": 66,
      "max": [
        0.96516430377960205,
        -0.25751879811286926,
        0.70412164926528931
      ],
      "min": [
        -0.96516430377960205,
        -0.87227898836135864,
        -0.37928986549377441
      ],
      "type": "VEC3"
    },
    {
      "bufferView": 0,
      "byteOffset": 38736,
      "componentType": 5125,
      "count": 66,
      "max": [
        65
      ],
      "min": [
        0
      ],
      "type": "SCALAR"
    },
    {
      "bufferView": 2,
      "componentType": 5126,
      "count": 1,
      "max": [
        1,
        0,
        0,
        0,
        0,
        1,
        0,
        0,
        0,
        0,
        1,
        0,
        0,
        0,
        0,
        1
      ],
      "min": [
        1,
        0,
        0,
        0,
        0,
        1,
        0,
        0,
        0,
        0,
        1,
        0,
        0,
        0,
        0,
        1
      ],
      "type": "MAT4"
    }
  ],
  "asset": {
    "extras": {
      "author": "Balazus (https://sketchfab.com/balazus)",
      "license": "CC-BY-4.0 (http://creativecommons.org/licenses/by/4.0/)",
      "source": "https://sketchfab.com/3d-models/pangolin-72aba4c10fe9416da20c9f33dbb2ab66",
      "title": "Pangolin"
    },
    "generator": "Sketchfab-7.68.0",
    "version": "2.0"
  },
  "bufferViews": [
    {
      "buffer": 0,
      "byteLength": 39000,
      "byteOffset": 0,
      "name": "floatBufferViews",
      "target": 34963
    },
    {
      "buffer": 0,
      "byteLength": 233544,
      "byteOffset": 39000,
      "byteStride": 12,
      "name": "floatBufferViews",
      "target": 34962
    },
    {
      "buffer": 0,
      "byteLength": 64,
      "byteOffset": 272544,
      "byteStride": 64,
      "name": "floatBufferViews"
    }
  ],
  "buffers": [
    {
      "byteLength": 272608,
      "uri": "scene.bin"
    }
  ],
  "materials": [
    {
      "doubleSided": true,
      "name": "Pnagolin",
      "pbrMetallicRoughness": {
        "baseColorFactor": [
          0.059214805978839172,
          0.041170891710021265,
          0.034818495268699422,
          1
        ],
        "metallicFactor": 0,
        "roughnessFactor": 0.59999999999999998
      }
    },
    {
      "doubleSided": true,
      "name": "Material",
      "pbrMetallicRoughness": {
        "baseColorFactor": [
          0.012518225358363446,
          0.00737447359806762,
          0.005495474958928992,
          1
        ],
        "metallicFactor": 0,
        "roughnessFactor": 0.59999999999999998
      }
    }
  ],
  "meshes": [
    {
      "primitives": [
        {
          "attributes": {
            "NORMAL": 1,
            "POSITION": 0
          },
          "indices": 2,
          "material": 0,
          "mode": 4
        }
      ]
    },
    {
      "primitives": [
        {
          "attributes": {
            "NORMAL": 4,
            "POSITION": 3
          },
          "indices": 5,
          "material": 1,
          "mode": 4
        }
      ]
    }
  ],
  "nodes": [
    {
      "children": [
        1
      ],
      "name": "RootNode (gltf orientation matrix)",
      "rotation": [
        -0.70710678118654746,
        -0,
        -0,
        0.70710678118654757
      ]
    },
    {
      "children": [
        2
      ],
      "name": "RootNode (model correction matrix)"
    },
    {
      "children": [
        3
      ],
      "name": "Collada visual scene group"
    },
    {
      "children": [
        4
      ],
      "name": "Armature"
    },
    {
      "children": [
        5,
        6,
        7
      ],
      "name": ""
    },
    {
      "name": "_rootJoint"
    },
    {
      "mesh": 0,
      "name": ""
    },
    {
      "mesh": 1,
      "name": ""
    }
  ],
  "scene": 0,
  "scenes": [
    {
      "name": "OSG_Scene",
      "nodes": [
        0
      ]
    }
  ],
  "skins": [
    {
      "inverseBindMatrices": 6,
      "joints": [
        5
      ],
      "skeleton": 5
    }
  ]
}

